<svg xmlns="http://www.w3.org/2000/svg" version="1.1" xmlns:xlink="http://www.w3.org/1999/xlink" xmlns:svgjs="http://svgjs.dev/svgjs" viewBox="0 0 11.418483472718563 12.45516454201485"><g transform="matrix(1,0,0,1,0.9936094121405317,9.37243012987432)"><g><path d=" M 0.1485 1.05 Q 0.132 1.05 0.1215 1.0395 Q 0.111 1.0290000000000001 0.111 1.0125 L 0.111 0.03750000000000009 Q 0.111 0.02100000000000013 0.1215 0.010499999999999954 Q 0.132 0 0.1485 0 L 0.594 0 Q 0.7185 0 0.798 0.03600000000000003 Q 0.8775000000000001 0.07200000000000006 0.9157500000000001 0.138 Q 0.9540000000000001 0.20400000000000007 0.9540000000000001 0.2925 Q 0.9540000000000001 0.348 0.93375 0.39 Q 0.9135 0.43200000000000005 0.88425 0.4590000000000001 Q 0.855 0.486 0.8280000000000001 0.49950000000000006 Q 0.8865000000000001 0.5265000000000001 0.93075 0.5887500000000001 Q 0.975 0.651 0.975 0.7365 Q 0.975 0.8310000000000001 0.933 0.9015000000000001 Q 0.891 0.9720000000000001 0.8085 1.0110000000000001 Q 0.726 1.05 0.6075 1.05 L 0.1485 1.05 Z M 0.34950000000000003 0.8745 L 0.579 0.8745 Q 0.6525 0.8745 0.6900000000000001 0.83325 Q 0.7275 0.792 0.7275 0.7350000000000001 Q 0.7275 0.6765000000000001 0.68925 0.63675 Q 0.651 0.597 0.579 0.597 L 0.34950000000000003 0.597 L 0.34950000000000003 0.8745 Z M 0.34950000000000003 0.4245 L 0.5655 0.4245 Q 0.636 0.4245 0.67125 0.38925 Q 0.7065 0.354 0.7065 0.2985 Q 0.7065 0.243 0.67125 0.20925000000000005 Q 0.636 0.1755 0.5655 0.1755 L 0.34950000000000003 0.1755 L 0.34950000000000003 0.4245 Z M 1.5974194335937502 1.065 Q 1.46541943359375 1.065 1.36641943359375 1.02075 Q 1.26741943359375 0.9765 1.21341943359375 0.88425 Q 1.1594194335937502 0.792 1.1594194335937502 0.6495 L 1.1594194335937502 0.03750000000000009 Q 1.1594194335937502 0.02100000000000013 1.1699194335937502 0.010499999999999954 Q 1.1804194335937501 0 1.19691943359375 0 L 1.36041943359375 0 Q 1.3769194335937502 0 1.3874194335937502 0.010499999999999954 Q 1.3979194335937501 0.02100000000000013 1.3979194335937501 0.03750000000000009 L 1.3979194335937501 0.648 Q 1.3979194335937501 0.7590000000000001 1.4504194335937501 0.8130000000000001 Q 1.5029194335937501 0.867 1.5974194335937502 0.867 Q 1.6904194335937501 0.867 1.7429194335937501 0.8130000000000001 Q 1.7954194335937501 0.7590000000000001 1.7954194335937501 0.648 L 1.7954194335937501 0.03750000000000009 Q 1.7954194335937501 0.02100000000000013 1.80666943359375 0.010499999999999954 Q 1.81791943359375 0 1.8329194335937502 0 L 1.9979194335937502 0 Q 2.0129194335937504 0 2.02341943359375 0.010499999999999954 Q 2.0339194335937503 0.02100000000000013 2.0339194335937503 0.03750000000000009 L 2.0339194335937503 0.6495 Q 2.0339194335937503 0.792 1.97991943359375 0.88425 Q 1.9259194335937502 0.9765 1.82841943359375 1.02075 Q 1.7309194335937501 1.065 1.5974194335937502 1.065 Z M 2.29941064453125 1.05 Q 2.2829106445312504 1.05 2.2724106445312504 1.0395 Q 2.2619106445312505 1.0290000000000001 2.2619106445312505 1.0125 L 2.2619106445312505 0.03750000000000009 Q 2.2619106445312505 0.02100000000000013 2.2724106445312504 0.010499999999999954 Q 2.2829106445312504 0 2.29941064453125 0 L 2.74491064453125 0 Q 2.8694106445312504 0 2.9489106445312503 0.03600000000000003 Q 3.02841064453125 0.07200000000000006 3.0666606445312503 0.138 Q 3.1049106445312504 0.20400000000000007 3.1049106445312504 0.2925 Q 3.1049106445312504 0.348 3.08466064453125 0.39 Q 3.0644106445312502 0.43200000000000005 3.03516064453125 0.4590000000000001 Q 3.0059106445312502 0.486 2.9789106445312505 0.49950000000000006 Q 3.03741064453125 0.5265000000000001 3.08166064453125 0.5887500000000001 Q 3.1259106445312503 0.651 3.1259106445312503 0.7365 Q 3.1259106445312503 0.8310000000000001 3.08391064453125 0.9015000000000001 Q 3.0419106445312503 0.9720000000000001 2.9594106445312502 1.0110000000000001 Q 2.8769106445312502 1.05 2.75841064453125 1.05 L 2.29941064453125 1.05 Z M 2.50041064453125 0.8745 L 2.72991064453125 0.8745 Q 2.80341064453125 0.8745 2.84091064453125 0.83325 Q 2.8784106445312503 0.792 2.8784106445312503 0.7350000000000001 Q 2.8784106445312503 0.6765000000000001 2.84016064453125 0.63675 Q 2.80191064453125 0.597 2.72991064453125 0.597 L 2.50041064453125 0.597 L 2.50041064453125 0.8745 Z M 2.50041064453125 0.4245 L 2.7164106445312504 0.4245 Q 2.7869106445312504 0.4245 2.8221606445312504 0.38925 Q 2.8574106445312504 0.354 2.8574106445312504 0.2985 Q 2.8574106445312504 0.243 2.8221606445312504 0.20925000000000005 Q 2.7869106445312504 0.1755 2.7164106445312504 0.1755 L 2.50041064453125 0.1755 L 2.50041064453125 0.4245 Z M 3.3568300781250002 1.05 Q 3.3403300781250005 1.05 3.3298300781250005 1.0395 Q 3.3193300781250006 1.0290000000000001 3.3193300781250006 1.0125 L 3.3193300781250006 0.03750000000000009 Q 3.3193300781250006 0.02100000000000013 3.3298300781250005 0.010499999999999954 Q 3.3403300781250005 0 3.3568300781250002 0 L 3.8023300781250002 0 Q 3.9268300781250005 0 4.006330078125 0.03600000000000003 Q 4.085830078125 0.07200000000000006 4.124080078125001 0.138 Q 4.1623300781250006 0.20400000000000007 4.1623300781250006 0.2925 Q 4.1623300781250006 0.348 4.142080078125001 0.39 Q 4.121830078125001 0.43200000000000005 4.092580078125001 0.4590000000000001 Q 4.063330078125 0.486 4.036330078125 0.49950000000000006 Q 4.094830078125001 0.5265000000000001 4.139080078125001 0.5887500000000001 Q 4.1833300781250005 0.651 4.1833300781250005 0.7365 Q 4.1833300781250005 0.8310000000000001 4.141330078125001 0.9015000000000001 Q 4.099330078125 0.9720000000000001 4.016830078125 1.0110000000000001 Q 3.9343300781250004 1.05 3.8158300781250003 1.05 L 3.3568300781250002 1.05 Z M 3.5578300781250003 0.8745 L 3.7873300781250006 0.8745 Q 3.8608300781250002 0.8745 3.8983300781250003 0.83325 Q 3.9358300781250004 0.792 3.9358300781250004 0.7350000000000001 Q 3.9358300781250004 0.6765000000000001 3.8975800781250003 0.63675 Q 3.8593300781250006 0.597 3.7873300781250006 0.597 L 3.5578300781250003 0.597 L 3.5578300781250003 0.8745 Z M 3.5578300781250003 0.4245 L 3.7738300781250005 0.4245 Q 3.8443300781250005 0.4245 3.8795800781250005 0.38925 Q 3.9148300781250005 0.354 3.9148300781250005 0.2985 Q 3.9148300781250005 0.243 3.8795800781250005 0.20925000000000005 Q 3.8443300781250005 0.1755 3.7738300781250005 0.1755 L 3.5578300781250003 0.1755 L 3.5578300781250003 0.4245 Z M 4.414249511718751 1.05 Q 4.39774951171875 1.05 4.387249511718751 1.0395 Q 4.37674951171875 1.0290000000000001 4.37674951171875 1.0125 L 4.37674951171875 0.03750000000000009 Q 4.37674951171875 0.02100000000000013 4.387249511718751 0.010499999999999954 Q 4.39774951171875 0 4.414249511718751 0 L 4.580749511718751 0 Q 4.597249511718751 0 4.60774951171875 0.010499999999999954 Q 4.6182495117187505 0.02100000000000013 4.6182495117187505 0.03750000000000009 L 4.6182495117187505 0.849 L 5.08324951171875 0.849 Q 5.09974951171875 0.849 5.1102495117187505 0.8595 Q 5.120749511718751 0.8700000000000001 5.120749511718751 0.8865000000000001 L 5.120749511718751 1.0125 Q 5.120749511718751 1.0290000000000001 5.1102495117187505 1.0395 Q 5.09974951171875 1.05 5.08324951171875 1.05 L 4.414249511718751 1.05 Z M 5.3111770019531255 1.05 Q 5.294677001953125 1.05 5.284177001953125 1.0395 Q 5.273677001953125 1.0290000000000001 5.273677001953125 1.0125 L 5.273677001953125 0.03750000000000009 Q 5.273677001953125 0.02100000000000013 5.284177001953125 0.010499999999999954 Q 5.294677001953125 0 5.3111770019531255 0 L 5.9906770019531255 0 Q 6.007177001953125 0 6.017677001953125 0.010499999999999954 Q 6.028177001953125 0.02100000000000013 6.028177001953125 0.03750000000000009 L 6.028177001953125 0.15749999999999997 Q 6.028177001953125 0.1725 6.017677001953125 0.18300000000000005 Q 6.007177001953125 0.1935 5.9906770019531255 0.1935 L 5.504677001953125 0.1935 L 5.504677001953125 0.42900000000000005 L 5.957677001953125 0.42900000000000005 Q 5.974177001953125 0.42900000000000005 5.984677001953125 0.4395 Q 5.995177001953126 0.45000000000000007 5.995177001953126 0.4665 L 5.995177001953126 0.5775 Q 5.995177001953126 0.5925 5.984677001953125 0.603 Q 5.974177001953125 0.6135 5.957677001953125 0.6135 L 5.504677001953125 0.6135 L 5.504677001953125 0.8565 L 6.002677001953125 0.8565 Q 6.019177001953125 0.8565 6.029677001953125 0.867 Q 6.040177001953126 0.8775000000000001 6.040177001953126 0.894 L 6.040177001953126 1.0125 Q 6.040177001953126 1.0290000000000001 6.029677001953125 1.0395 Q 6.019177001953125 1.05 6.002677001953125 1.05 L 5.3111770019531255 1.05 Z M 6.617513671875 1.05 Q 6.601013671874999 1.05 6.590513671875 1.0395 Q 6.580013671874999 1.0290000000000001 6.580013671874999 1.0125 L 6.580013671874999 0.03750000000000009 Q 6.580013671874999 0.02100000000000013 6.590513671875 0.010499999999999954 Q 6.601013671874999 0 6.617513671875 0 L 7.063013671875 0 Q 7.187513671874999 0 7.267013671875 0.03600000000000003 Q 7.346513671875 0.07200000000000006 7.384763671875 0.138 Q 7.423013671874999 0.20400000000000007 7.423013671874999 0.2925 Q 7.423013671874999 0.348 7.402763671874999 0.39 Q 7.3825136718749995 0.43200000000000005 7.353263671874999 0.4590000000000001 Q 7.324013671874999 0.486 7.297013671875 0.49950000000000006 Q 7.355513671874999 0.5265000000000001 7.399763671874999 0.5887500000000001 Q 7.444013671874999 0.651 7.444013671874999 0.7365 Q 7.444013671874999 0.8310000000000001 7.402013671874999 0.9015000000000001 Q 7.3600136718749996 0.9720000000000001 7.277513671874999 1.0110000000000001 Q 7.1950136718749995 1.05 7.0765136718749995 1.05 L 6.617513671875 1.05 Z M 6.8185136718749995 0.8745 L 7.048013671874999 0.8745 Q 7.121513671874999 0.8745 7.159013671875 0.83325 Q 7.196513671875 0.792 7.196513671875 0.7350000000000001 Q 7.196513671875 0.6765000000000001 7.158263671875 0.63675 Q 7.120013671874999 0.597 7.048013671874999 0.597 L 6.8185136718749995 0.597 L 6.8185136718749995 0.8745 Z M 6.8185136718749995 0.4245 L 7.034513671875 0.4245 Q 7.105013671875 0.4245 7.140263671874999 0.38925 Q 7.175513671875 0.354 7.175513671875 0.2985 Q 7.175513671875 0.243 7.140263671874999 0.20925000000000005 Q 7.105013671875 0.1755 7.034513671875 0.1755 L 6.8185136718749995 0.1755 L 6.8185136718749995 0.4245 Z M 7.6749331054687495 1.05 Q 7.658433105468749 1.05 7.647933105468749 1.0395 Q 7.637433105468749 1.0290000000000001 7.637433105468749 1.0125 L 7.637433105468749 0.03750000000000009 Q 7.637433105468749 0.02100000000000013 7.647933105468749 0.010499999999999954 Q 7.658433105468749 0 7.6749331054687495 0 L 8.354433105468749 0 Q 8.37093310546875 0 8.38143310546875 0.010499999999999954 Q 8.39193310546875 0.02100000000000013 8.39193310546875 0.03750000000000009 L 8.39193310546875 0.15749999999999997 Q 8.39193310546875 0.1725 8.38143310546875 0.18300000000000005 Q 8.37093310546875 0.1935 8.354433105468749 0.1935 L 7.868433105468749 0.1935 L 7.868433105468749 0.42900000000000005 L 8.32143310546875 0.42900000000000005 Q 8.33793310546875 0.42900000000000005 8.34843310546875 0.4395 Q 8.358933105468749 0.45000000000000007 8.358933105468749 0.4665 L 8.358933105468749 0.5775 Q 8.358933105468749 0.5925 8.34843310546875 0.603 Q 8.33793310546875 0.6135 8.32143310546875 0.6135 L 7.868433105468749 0.6135 L 7.868433105468749 0.8565 L 8.366433105468749 0.8565 Q 8.38293310546875 0.8565 8.393433105468748 0.867 Q 8.403933105468749 0.8775000000000001 8.403933105468749 0.894 L 8.403933105468749 1.0125 Q 8.403933105468749 1.0290000000000001 8.393433105468748 1.0395 Q 8.38293310546875 1.05 8.366433105468749 1.05 L 7.6749331054687495 1.05 Z M 8.634848876953125 1.05 Q 8.618348876953124 1.05 8.607848876953124 1.0395 Q 8.597348876953125 1.0290000000000001 8.597348876953125 1.0125 L 8.597348876953125 0.03750000000000009 Q 8.597348876953125 0.02100000000000013 8.607848876953124 0.010499999999999954 Q 8.618348876953124 0 8.634848876953125 0 L 9.314348876953124 0 Q 9.330848876953125 0 9.341348876953125 0.010499999999999954 Q 9.351848876953126 0.02100000000000013 9.351848876953126 0.03750000000000009 L 9.351848876953126 0.15749999999999997 Q 9.351848876953126 0.1725 9.341348876953125 0.18300000000000005 Q 9.330848876953125 0.1935 9.314348876953124 0.1935 L 8.828348876953125 0.1935 L 8.828348876953125 0.42900000000000005 L 9.281348876953125 0.42900000000000005 Q 9.297848876953125 0.42900000000000005 9.308348876953126 0.4395 Q 9.318848876953124 0.45000000000000007 9.318848876953124 0.4665 L 9.318848876953124 0.5775 Q 9.318848876953124 0.5925 9.308348876953126 0.603 Q 9.297848876953125 0.6135 9.281348876953125 0.6135 L 8.828348876953125 0.6135 L 8.828348876953125 0.8565 L 9.326348876953125 0.8565 Q 9.342848876953125 0.8565 9.353348876953124 0.867 Q 9.363848876953124 0.8775000000000001 9.363848876953124 0.894 L 9.363848876953124 1.0125 Q 9.363848876953124 1.0290000000000001 9.353348876953124 1.0395 Q 9.342848876953125 1.05 9.326348876953125 1.05 L 8.634848876953125 1.05 Z" fill="#574848" fill-rule="nonzero"></path></g><g><path d=" M 0.5391723632812506 2.081625 Q 0.5309223632812506 2.081625 0.5264223632812506 2.0767499999999997 Q 0.5219223632812506 2.071875 0.5219223632812506 2.0643749999999996 L 0.5219223632812506 1.5746249999999997 Q 0.5219223632812506 1.5663749999999999 0.5264223632812506 1.5614999999999997 Q 0.5309223632812506 1.556625 0.5391723632812506 1.556625 L 0.7446723632812506 1.556625 Q 0.8009223632812505 1.556625 0.8365473632812506 1.5749999999999997 Q 0.8721723632812506 1.5933749999999998 0.8890473632812506 1.6248749999999998 Q 0.9059223632812505 1.6563749999999997 0.9059223632812505 1.6953749999999999 Q 0.9059223632812505 1.726125 0.8957973632812506 1.7482499999999999 Q 0.8856723632812507 1.7703749999999998 0.8706723632812506 1.78425 Q 0.8556723632812506 1.7981249999999998 0.8414223632812505 1.8056249999999998 Q 0.8706723632812506 1.819875 0.8935473632812506 1.8521249999999998 Q 0.9164223632812506 1.884375 0.9164223632812506 1.9301249999999999 Q 0.9164223632812506 1.9713749999999999 0.8976723632812507 2.0058749999999996 Q 0.8789223632812506 2.040375 0.8417973632812505 2.061 Q 0.8046723632812507 2.081625 0.7506723632812506 2.081625 L 0.5391723632812506 2.081625 Z M 0.5954223632812506 2.0208749999999998 L 0.7409223632812506 2.0208749999999998 Q 0.7889223632812505 2.0208749999999998 0.8151723632812506 1.9946249999999999 Q 0.8414223632812505 1.9683749999999998 0.8414223632812505 1.9301249999999999 Q 0.8414223632812505 1.890375 0.8151723632812506 1.8644999999999998 Q 0.7889223632812505 1.838625 0.7409223632812506 1.838625 L 0.5954223632812506 1.838625 L 0.5954223632812506 2.0208749999999998 Z M 0.5954223632812506 1.778625 L 0.7334223632812507 1.778625 Q 0.7814223632812506 1.778625 0.8061723632812506 1.7565 Q 0.8309223632812506 1.7343749999999998 0.8309223632812506 1.6961249999999999 Q 0.8309223632812506 1.6578749999999998 0.8061723632812506 1.6376249999999999 Q 0.7814223632812506 1.6173749999999998 0.7334223632812507 1.6173749999999998 L 0.5954223632812506 1.6173749999999998 L 0.5954223632812506 1.778625 Z M 1.2283989257812507 2.0891249999999997 Q 1.1653989257812507 2.0891249999999997 1.1200239257812508 2.0666249999999997 Q 1.0746489257812506 2.0441249999999997 1.0502739257812506 1.9979999999999998 Q 1.0258989257812507 1.9518749999999998 1.0258989257812507 1.8791249999999997 L 1.0258989257812507 1.5746249999999997 Q 1.0258989257812507 1.5663749999999999 1.0303989257812507 1.5614999999999997 Q 1.0348989257812506 1.556625 1.0431489257812507 1.556625 L 1.0813989257812506 1.556625 Q 1.0896489257812507 1.556625 1.0945239257812507 1.5614999999999997 Q 1.0993989257812506 1.5663749999999999 1.0993989257812506 1.5746249999999997 L 1.0993989257812506 1.8806249999999998 Q 1.0993989257812506 1.954125 1.1338989257812506 1.989375 Q 1.1683989257812506 2.024625 1.2283989257812507 2.024625 Q 1.2876489257812507 2.024625 1.3225239257812507 1.989375 Q 1.3573989257812507 1.954125 1.3573989257812507 1.8806249999999998 L 1.3573989257812507 1.5746249999999997 Q 1.3573989257812507 1.5663749999999999 1.3622739257812506 1.5614999999999997 Q 1.3671489257812506 1.556625 1.3746489257812506 1.556625 L 1.4136489257812506 1.556625 Q 1.4211489257812506 1.556625 1.4260239257812506 1.5614999999999997 Q 1.4308989257812508 1.5663749999999999 1.4308989257812508 1.5746249999999997 L 1.4308989257812508 1.8791249999999997 Q 1.4308989257812508 1.9518749999999998 1.4065239257812507 1.9979999999999998 Q 1.3821489257812507 2.0441249999999997 1.3371489257812508 2.0666249999999997 Q 1.2921489257812506 2.0891249999999997 1.2283989257812507 2.0891249999999997 Z M 1.7211405029296882 2.081625 Q 1.7136405029296882 2.081625 1.7087655029296882 2.0767499999999997 Q 1.7038905029296882 2.071875 1.7038905029296882 2.0643749999999996 L 1.7038905029296882 1.8873749999999998 L 1.5231405029296883 1.581375 Q 1.5223905029296882 1.579125 1.5216405029296882 1.5768749999999998 Q 1.5208905029296882 1.5746249999999997 1.5208905029296882 1.5716249999999998 Q 1.5208905029296882 1.5656249999999998 1.5253905029296881 1.5611249999999999 Q 1.5298905029296883 1.556625 1.5358905029296883 1.556625 L 1.5748905029296882 1.556625 Q 1.5816405029296883 1.556625 1.5868905029296883 1.5599999999999998 Q 1.5921405029296882 1.5633749999999997 1.5943905029296883 1.569375 L 1.7406405029296883 1.8123749999999998 L 1.8868905029296883 1.569375 Q 1.8906405029296882 1.5633749999999997 1.8955155029296882 1.5599999999999998 Q 1.9003905029296884 1.556625 1.9071405029296882 1.556625 L 1.9453905029296883 1.556625 Q 1.952140502929688 1.556625 1.9566405029296883 1.5611249999999999 Q 1.9611405029296882 1.5656249999999998 1.9611405029296882 1.5716249999999998 Q 1.9611405029296882 1.5746249999999997 1.9603905029296882 1.5768749999999998 Q 1.9596405029296882 1.579125 1.9581405029296883 1.581375 L 1.7781405029296882 1.8873749999999998 L 1.7781405029296882 2.0643749999999996 Q 1.7781405029296882 2.071875 1.7732655029296882 2.0767499999999997 Q 1.7683905029296882 2.081625 1.7601405029296882 2.081625 L 1.7211405029296882 2.081625 Z M 2.2430767822265634 2.081625 Q 2.2348267822265635 2.081625 2.2303267822265633 2.0767499999999997 Q 2.225826782226563 2.071875 2.225826782226563 2.0643749999999996 L 2.225826782226563 1.5746249999999997 Q 2.225826782226563 1.5663749999999999 2.2303267822265633 1.5614999999999997 Q 2.2348267822265635 1.556625 2.2430767822265634 1.556625 L 2.5490767822265634 1.556625 Q 2.5573267822265633 1.556625 2.5622017822265635 1.5614999999999997 Q 2.567076782226563 1.5663749999999999 2.567076782226563 1.5746249999999997 L 2.567076782226563 1.6046249999999997 Q 2.567076782226563 1.6128749999999998 2.5622017822265635 1.6173749999999998 Q 2.5573267822265633 1.6218749999999997 2.5490767822265634 1.6218749999999997 L 2.2985767822265633 1.6218749999999997 L 2.2985767822265633 1.7966249999999997 L 2.5340767822265633 1.7966249999999997 Q 2.5423267822265636 1.7966249999999997 2.5472017822265633 1.8014999999999999 Q 2.5520767822265635 1.8063749999999998 2.5520767822265635 1.814625 L 2.5520767822265635 1.8446249999999997 Q 2.5520767822265635 1.8521249999999998 2.5472017822265633 1.8569999999999998 Q 2.5423267822265636 1.861875 2.5340767822265633 1.861875 L 2.2985767822265633 1.861875 L 2.2985767822265633 2.0643749999999996 Q 2.2985767822265633 2.071875 2.2937017822265635 2.0767499999999997 Q 2.2888267822265633 2.081625 2.2805767822265635 2.081625 L 2.2430767822265634 2.081625 Z M 2.688565063476563 2.081625 Q 2.6803150634765633 2.081625 2.675815063476563 2.0767499999999997 Q 2.671315063476563 2.071875 2.671315063476563 2.0643749999999996 L 2.671315063476563 1.5738749999999997 Q 2.671315063476563 1.5663749999999999 2.675815063476563 1.5614999999999997 Q 2.6803150634765633 1.556625 2.688565063476563 1.556625 L 2.7283150634765634 1.556625 Q 2.7365650634765633 1.556625 2.7410650634765634 1.5614999999999997 Q 2.745565063476563 1.5663749999999999 2.745565063476563 1.5738749999999997 L 2.745565063476563 2.0643749999999996 Q 2.745565063476563 2.071875 2.7410650634765634 2.0767499999999997 Q 2.7365650634765633 2.081625 2.7283150634765634 2.081625 L 2.688565063476563 2.081625 Z M 2.900776977539063 2.081625 Q 2.892526977539063 2.081625 2.888026977539063 2.0767499999999997 Q 2.883526977539063 2.071875 2.883526977539063 2.0643749999999996 L 2.883526977539063 1.5746249999999997 Q 2.883526977539063 1.5663749999999999 2.888026977539063 1.5614999999999997 Q 2.892526977539063 1.556625 2.900776977539063 1.556625 L 3.083776977539063 1.556625 Q 3.168526977539063 1.556625 3.218026977539063 1.5963749999999999 Q 3.267526977539063 1.6361249999999998 3.267526977539063 1.714125 Q 3.267526977539063 1.7718749999999999 3.238651977539063 1.80825 Q 3.209776977539063 1.8446249999999997 3.160276977539063 1.8588749999999998 L 3.275776977539063 2.058375 Q 3.278026977539063 2.062875 3.278026977539063 2.0666249999999997 Q 3.278026977539063 2.072625 3.273151977539063 2.0771249999999997 Q 3.268276977539063 2.081625 3.262276977539063 2.081625 L 3.226276977539063 2.081625 Q 3.213526977539063 2.081625 3.207526977539063 2.074875 Q 3.201526977539063 2.0681249999999998 3.197026977539063 2.061375 L 3.088276977539063 1.8708749999999998 L 2.957026977539063 1.8708749999999998 L 2.957026977539063 2.0643749999999996 Q 2.957026977539063 2.071875 2.952151977539063 2.0767499999999997 Q 2.947276977539063 2.081625 2.939026977539063 2.081625 L 2.900776977539063 2.081625 Z M 2.957026977539063 1.8071249999999999 L 3.080776977539063 1.8071249999999999 Q 3.137026977539063 1.8071249999999999 3.164776977539063 1.7834999999999999 Q 3.192526977539063 1.7598749999999999 3.192526977539063 1.7133749999999999 Q 3.192526977539063 1.6676249999999997 3.165151977539063 1.643625 Q 3.137776977539063 1.6196249999999999 3.080776977539063 1.6196249999999999 L 2.957026977539063 1.6196249999999999 L 2.957026977539063 1.8071249999999999 Z M 3.5510031738281254 2.0891249999999997 Q 3.4857531738281256 2.0891249999999997 3.441503173828125 2.068875 Q 3.3972531738281253 2.048625 3.3736281738281253 2.01675 Q 3.3500031738281253 1.9848749999999997 3.3485031738281252 1.9496249999999997 Q 3.3485031738281252 1.943625 3.3533781738281254 1.9387499999999998 Q 3.358253173828125 1.9338749999999998 3.3650031738281254 1.9338749999999998 L 3.4032531738281255 1.9338749999999998 Q 3.4122531738281254 1.9338749999999998 3.416753173828125 1.9383749999999997 Q 3.4212531738281253 1.942875 3.4227531738281254 1.948875 Q 3.4272531738281256 1.966875 3.441503173828125 1.9845 Q 3.4557531738281253 2.002125 3.4823781738281254 2.01375 Q 3.5090031738281255 2.025375 3.5510031738281254 2.025375 Q 3.6155031738281256 2.025375 3.6458781738281254 2.0025 Q 3.676253173828125 1.9796249999999997 3.676253173828125 1.9413749999999999 Q 3.676253173828125 1.9151249999999997 3.6601281738281255 1.8989999999999998 Q 3.6440031738281253 1.8828749999999999 3.6110031738281254 1.8701249999999998 Q 3.5780031738281255 1.8573749999999998 3.5255031738281253 1.8423749999999999 Q 3.4707531738281254 1.826625 3.4347531738281254 1.807875 Q 3.3987531738281254 1.7891249999999999 3.3811281738281256 1.761375 Q 3.3635031738281254 1.7336249999999997 3.3635031738281254 1.690875 Q 3.3635031738281254 1.650375 3.3852531738281253 1.6184999999999998 Q 3.4070031738281252 1.5866249999999997 3.4482531738281255 1.567875 Q 3.4895031738281252 1.5491249999999999 3.547253173828125 1.5491249999999999 Q 3.593753173828125 1.5491249999999999 3.628628173828125 1.5614999999999997 Q 3.6635031738281256 1.5738749999999997 3.6867531738281256 1.5944999999999998 Q 3.7100031738281256 1.615125 3.722003173828125 1.63875 Q 3.734003173828125 1.662375 3.734753173828125 1.684875 Q 3.734753173828125 1.6901249999999999 3.7310031738281255 1.6949999999999998 Q 3.7272531738281254 1.6998749999999998 3.7190031738281255 1.6998749999999998 L 3.6792531738281253 1.6998749999999998 Q 3.674003173828125 1.6998749999999998 3.6683781738281254 1.696875 Q 3.6627531738281256 1.6938749999999998 3.6597531738281255 1.685625 Q 3.6552531738281253 1.6548749999999999 3.6252531738281255 1.6338749999999997 Q 3.5952531738281253 1.6128749999999998 3.547253173828125 1.6128749999999998 Q 3.4985031738281256 1.6128749999999998 3.4681281738281253 1.6316249999999999 Q 3.4377531738281255 1.650375 3.4377531738281255 1.6901249999999999 Q 3.4377531738281255 1.7156249999999997 3.4520031738281256 1.7325 Q 3.4662531738281253 1.749375 3.4970031738281255 1.7621249999999997 Q 3.5277531738281254 1.7748749999999998 3.5772531738281255 1.7891249999999999 Q 3.6372531738281255 1.8056249999999998 3.675503173828125 1.8239999999999998 Q 3.7137531738281253 1.8423749999999999 3.7321281738281256 1.8697499999999998 Q 3.7505031738281254 1.897125 3.7505031738281254 1.9398749999999998 Q 3.7505031738281254 1.9871249999999998 3.7257531738281253 2.0204999999999997 Q 3.7010031738281253 2.0538749999999997 3.6563781738281254 2.0715 Q 3.6117531738281254 2.0891249999999997 3.5510031738281254 2.0891249999999997 Z M 3.982171875 2.081625 Q 3.9746718750000003 2.081625 3.969796875 2.0767499999999997 Q 3.9649218750000004 2.071875 3.9649218750000004 2.0643749999999996 L 3.9649218750000004 1.6233749999999998 L 3.8209218750000002 1.6233749999999998 Q 3.8134218750000004 1.6233749999999998 3.808546875 1.6184999999999998 Q 3.803671875 1.6136249999999999 3.803671875 1.6061249999999998 L 3.803671875 1.5746249999999997 Q 3.803671875 1.5663749999999999 3.808546875 1.5614999999999997 Q 3.8134218750000004 1.556625 3.8209218750000002 1.556625 L 4.182421875 1.556625 Q 4.1906718750000005 1.556625 4.195546875 1.5614999999999997 Q 4.200421875 1.5663749999999999 4.200421875 1.5746249999999997 L 4.200421875 1.6061249999999998 Q 4.200421875 1.6136249999999999 4.195546875 1.6184999999999998 Q 4.1906718750000005 1.6233749999999998 4.182421875 1.6233749999999998 L 4.039171875 1.6233749999999998 L 4.039171875 2.0643749999999996 Q 4.039171875 2.071875 4.034296875 2.0767499999999997 Q 4.029421875000001 2.081625 4.021171875 2.081625 L 3.982171875 2.081625 Z M 4.614384521484376 2.0891249999999997 Q 4.563384521484376 2.0891249999999997 4.524009521484376 2.070375 Q 4.4846345214843755 2.051625 4.4628845214843755 2.0182499999999997 Q 4.441134521484376 1.9848749999999997 4.441134521484376 1.9413749999999999 Q 4.441134521484376 1.9068749999999999 4.455759521484376 1.8809999999999998 Q 4.470384521484376 1.855125 4.494384521484376 1.8348749999999998 Q 4.518384521484376 1.814625 4.546884521484376 1.7981249999999998 Q 4.511634521484376 1.7606249999999999 4.497009521484376 1.732125 Q 4.482384521484375 1.7036249999999997 4.482384521484375 1.672875 Q 4.482384521484375 1.639125 4.499634521484376 1.6113749999999998 Q 4.516884521484376 1.5836249999999998 4.548384521484376 1.5663749999999999 Q 4.5798845214843755 1.5491249999999999 4.622634521484375 1.5491249999999999 Q 4.664634521484376 1.5491249999999999 4.6953845214843755 1.5656249999999998 Q 4.726134521484376 1.5821249999999998 4.7433845214843755 1.6098749999999997 Q 4.760634521484376 1.6376249999999999 4.760634521484376 1.6721249999999999 Q 4.760634521484376 1.7051249999999998 4.744884521484376 1.7298749999999998 Q 4.729134521484376 1.7546249999999999 4.703259521484376 1.7741249999999997 Q 4.677384521484376 1.7936249999999998 4.646634521484375 1.8108749999999998 L 4.774134521484376 1.9361249999999999 Q 4.786134521484376 1.9151249999999997 4.797009521484376 1.8873749999999998 Q 4.807884521484376 1.8596249999999999 4.8146345214843755 1.8221249999999998 Q 4.816134521484376 1.8071249999999999 4.830384521484376 1.8071249999999999 L 4.863384521484376 1.8071249999999999 Q 4.870884521484376 1.8071249999999999 4.875009521484376 1.8116249999999998 Q 4.879134521484376 1.8161249999999998 4.879134521484376 1.8228749999999998 Q 4.878384521484376 1.8393749999999998 4.874259521484376 1.8581249999999998 Q 4.870134521484376 1.8768749999999998 4.862259521484376 1.8978749999999998 Q 4.854384521484376 1.9188749999999999 4.843509521484376 1.9394999999999998 Q 4.832634521484376 1.960125 4.818384521484376 1.9796249999999997 L 4.894884521484376 2.0561249999999998 Q 4.901634521484376 2.062125 4.901634521484376 2.0673749999999997 Q 4.901634521484376 2.074125 4.897884521484376 2.0778749999999997 Q 4.894134521484376 2.081625 4.886634521484376 2.081625 L 4.844634521484376 2.081625 Q 4.8371345214843755 2.081625 4.832259521484376 2.0793749999999998 Q 4.827384521484376 2.0771249999999997 4.824384521484376 2.074125 L 4.774884521484376 2.025375 Q 4.745634521484376 2.0538749999999997 4.705884521484376 2.0715 Q 4.666134521484376 2.0891249999999997 4.614384521484376 2.0891249999999997 Z M 4.614384521484376 2.0291249999999996 Q 4.644384521484376 2.0291249999999996 4.6743845214843756 2.01675 Q 4.704384521484376 2.004375 4.729884521484376 1.978875 L 4.589634521484376 1.8423749999999999 Q 4.557384521484376 1.860375 4.5337595214843756 1.8832499999999999 Q 4.5101345214843755 1.9061249999999998 4.5101345214843755 1.9398749999999998 Q 4.5101345214843755 1.9683749999999998 4.524759521484376 1.9882499999999999 Q 4.539384521484376 2.0081249999999997 4.563384521484376 2.0186249999999997 Q 4.587384521484376 2.0291249999999996 4.614384521484376 2.0291249999999996 Z M 4.605384521484376 1.767375 Q 4.629384521484376 1.7538749999999999 4.6500095214843755 1.7403749999999998 Q 4.670634521484375 1.7268749999999997 4.683009521484376 1.7103749999999998 Q 4.6953845214843755 1.6938749999999998 4.6953845214843755 1.672875 Q 4.6953845214843755 1.6428749999999999 4.6743845214843756 1.6248749999999998 Q 4.653384521484376 1.6068749999999998 4.622634521484375 1.6068749999999998 Q 4.593384521484376 1.6068749999999998 4.571634521484376 1.6244999999999998 Q 4.549884521484376 1.6421249999999998 4.549884521484376 1.673625 Q 4.549884521484376 1.686375 4.5543845214843754 1.6994999999999998 Q 4.558884521484376 1.7126249999999998 4.571259521484376 1.7283749999999998 Q 4.583634521484376 1.744125 4.605384521484376 1.767375 Z M 5.200858154296876 2.081625 Q 5.1926081542968765 2.081625 5.188108154296876 2.0767499999999997 Q 5.183608154296876 2.071875 5.183608154296876 2.0643749999999996 L 5.183608154296876 1.5746249999999997 Q 5.183608154296876 1.5663749999999999 5.188108154296876 1.5614999999999997 Q 5.1926081542968765 1.556625 5.200858154296876 1.556625 L 5.391358154296876 1.556625 Q 5.446858154296876 1.556625 5.487733154296876 1.5746249999999997 Q 5.528608154296876 1.592625 5.551108154296877 1.6282499999999998 Q 5.573608154296877 1.6638749999999998 5.573608154296877 1.7171249999999998 Q 5.573608154296877 1.7703749999999998 5.551108154296877 1.8056249999999998 Q 5.528608154296876 1.8408749999999998 5.487733154296876 1.8588749999999998 Q 5.446858154296876 1.8768749999999998 5.391358154296876 1.8768749999999998 L 5.258608154296876 1.8768749999999998 L 5.258608154296876 2.0643749999999996 Q 5.258608154296876 2.071875 5.253733154296876 2.0767499999999997 Q 5.248858154296876 2.081625 5.2406081542968765 2.081625 L 5.200858154296876 2.081625 Z M 5.257858154296876 1.813875 L 5.387608154296876 1.813875 Q 5.443108154296876 1.813875 5.470858154296876 1.7891249999999999 Q 5.4986081542968765 1.7643749999999998 5.4986081542968765 1.7171249999999998 Q 5.4986081542968765 1.6706249999999998 5.471608154296876 1.6451249999999997 Q 5.444608154296876 1.6196249999999999 5.387608154296876 1.6196249999999999 L 5.257858154296876 1.6196249999999999 L 5.257858154296876 1.813875 Z M 5.607304687500002 2.081625 Q 5.601304687500002 2.081625 5.5968046875000015 2.0771249999999997 Q 5.592304687500001 2.072625 5.592304687500001 2.0666249999999997 Q 5.592304687500001 2.062875 5.593054687500001 2.058375 L 5.779054687500001 1.5731249999999997 Q 5.782054687500001 1.5656249999999998 5.787304687500002 1.5611249999999999 Q 5.792554687500002 1.556625 5.803054687500001 1.556625 L 5.8540546875000015 1.556625 Q 5.864554687500002 1.556625 5.869804687500002 1.5611249999999999 Q 5.875054687500001 1.5656249999999998 5.8780546875000015 1.5731249999999997 L 6.063304687500001 2.058375 Q 6.0648046875000015 2.062875 6.0648046875000015 2.0666249999999997 Q 6.0648046875000015 2.072625 6.060304687500001 2.0771249999999997 Q 6.055804687500002 2.081625 6.049804687500002 2.081625 L 6.011554687500002 2.081625 Q 6.002554687500002 2.081625 5.998429687500002 2.0771249999999997 Q 5.9943046875000014 2.072625 5.992804687500001 2.068875 L 5.951554687500002 1.9623749999999998 L 5.705554687500002 1.9623749999999998 L 5.664304687500001 2.068875 Q 5.663554687500001 2.072625 5.659054687500002 2.0771249999999997 Q 5.654554687500002 2.081625 5.645554687500002 2.081625 L 5.607304687500002 2.081625 Z M 5.727304687500002 1.8978749999999998 L 5.929804687500002 1.8978749999999998 L 5.828554687500001 1.6316249999999999 L 5.727304687500002 1.8978749999999998 Z M 6.256025756835939 2.081625 Q 6.24852575683594 2.081625 6.243650756835939 2.0767499999999997 Q 6.238775756835939 2.071875 6.238775756835939 2.0643749999999996 L 6.238775756835939 1.8873749999999998 L 6.0580257568359395 1.581375 Q 6.057275756835939 1.579125 6.056525756835939 1.5768749999999998 Q 6.055775756835939 1.5746249999999997 6.055775756835939 1.5716249999999998 Q 6.055775756835939 1.5656249999999998 6.0602757568359396 1.5611249999999999 Q 6.06477575683594 1.556625 6.070775756835939 1.556625 L 6.10977575683594 1.556625 Q 6.116525756835939 1.556625 6.121775756835939 1.5599999999999998 Q 6.127025756835939 1.5633749999999997 6.1292757568359395 1.569375 L 6.27552575683594 1.8123749999999998 L 6.421775756835939 1.569375 Q 6.425525756835939 1.5633749999999997 6.430400756835939 1.5599999999999998 Q 6.4352757568359396 1.556625 6.44202575683594 1.556625 L 6.4802757568359395 1.556625 Q 6.48702575683594 1.556625 6.491525756835939 1.5611249999999999 Q 6.496025756835939 1.5656249999999998 6.496025756835939 1.5716249999999998 Q 6.496025756835939 1.5746249999999997 6.495275756835939 1.5768749999999998 Q 6.494525756835939 1.579125 6.493025756835939 1.581375 L 6.313025756835939 1.8873749999999998 L 6.313025756835939 2.0643749999999996 Q 6.313025756835939 2.071875 6.308150756835939 2.0767499999999997 Q 6.303275756835939 2.081625 6.29502575683594 2.081625 L 6.256025756835939 2.081625 Z M 6.777962036132815 2.081625 Q 6.769712036132815 2.081625 6.765212036132815 2.0767499999999997 Q 6.760712036132815 2.071875 6.760712036132815 2.0643749999999996 L 6.760712036132815 1.5738749999999997 Q 6.760712036132815 1.5663749999999999 6.765212036132815 1.5614999999999997 Q 6.769712036132815 1.556625 6.777962036132815 1.556625 L 6.817712036132815 1.556625 Q 6.825212036132815 1.556625 6.830087036132815 1.5614999999999997 Q 6.834962036132815 1.5663749999999999 6.834962036132815 1.5738749999999997 L 6.834962036132815 2.016375 L 7.083962036132815 2.016375 Q 7.092212036132815 2.016375 7.097087036132815 2.0212499999999998 Q 7.101962036132815 2.026125 7.101962036132815 2.034375 L 7.101962036132815 2.0643749999999996 Q 7.101962036132815 2.071875 7.097087036132815 2.0767499999999997 Q 7.092212036132815 2.081625 7.083962036132815 2.081625 L 6.777962036132815 2.081625 Z M 7.1552032470703155 2.081625 Q 7.149203247070315 2.081625 7.144703247070315 2.0771249999999997 Q 7.140203247070315 2.072625 7.140203247070315 2.0666249999999997 Q 7.140203247070315 2.062875 7.140953247070315 2.058375 L 7.326953247070315 1.5731249999999997 Q 7.329953247070315 1.5656249999999998 7.335203247070315 1.5611249999999999 Q 7.340453247070315 1.556625 7.350953247070315 1.556625 L 7.401953247070315 1.556625 Q 7.4124532470703155 1.556625 7.417703247070316 1.5611249999999999 Q 7.422953247070315 1.5656249999999998 7.425953247070315 1.5731249999999997 L 7.611203247070315 2.058375 Q 7.612703247070315 2.062875 7.612703247070315 2.0666249999999997 Q 7.612703247070315 2.072625 7.608203247070315 2.0771249999999997 Q 7.603703247070316 2.081625 7.597703247070315 2.081625 L 7.559453247070316 2.081625 Q 7.550453247070315 2.081625 7.546328247070315 2.0771249999999997 Q 7.542203247070315 2.072625 7.540703247070315 2.068875 L 7.499453247070315 1.9623749999999998 L 7.253453247070316 1.9623749999999998 L 7.212203247070315 2.068875 Q 7.211453247070315 2.072625 7.206953247070316 2.0771249999999997 Q 7.2024532470703155 2.081625 7.193453247070315 2.081625 L 7.1552032470703155 2.081625 Z M 7.275203247070316 1.8978749999999998 L 7.477703247070315 1.8978749999999998 L 7.376453247070315 1.6316249999999999 L 7.275203247070316 1.8978749999999998 Z M 7.776913696289066 2.081625 Q 7.769413696289066 2.081625 7.7645386962890655 2.0767499999999997 Q 7.759663696289065 2.071875 7.759663696289065 2.0643749999999996 L 7.759663696289065 1.6233749999999998 L 7.615663696289065 1.6233749999999998 Q 7.608163696289066 1.6233749999999998 7.603288696289066 1.6184999999999998 Q 7.598413696289065 1.6136249999999999 7.598413696289065 1.6061249999999998 L 7.598413696289065 1.5746249999999997 Q 7.598413696289065 1.5663749999999999 7.603288696289066 1.5614999999999997 Q 7.608163696289066 1.556625 7.615663696289065 1.556625 L 7.9771636962890655 1.556625 Q 7.985413696289066 1.556625 7.990288696289065 1.5614999999999997 Q 7.995163696289065 1.5663749999999999 7.995163696289065 1.5746249999999997 L 7.995163696289065 1.6061249999999998 Q 7.995163696289065 1.6136249999999999 7.990288696289065 1.6184999999999998 Q 7.985413696289066 1.6233749999999998 7.9771636962890655 1.6233749999999998 L 7.833913696289065 1.6233749999999998 L 7.833913696289065 2.0643749999999996 Q 7.833913696289065 2.071875 7.829038696289065 2.0767499999999997 Q 7.824163696289066 2.081625 7.815913696289066 2.081625 L 7.776913696289066 2.081625 Z M 8.10389831542969 2.081625 Q 8.09564831542969 2.081625 8.091148315429692 2.0767499999999997 Q 8.086648315429692 2.071875 8.086648315429692 2.0643749999999996 L 8.086648315429692 1.5746249999999997 Q 8.086648315429692 1.5663749999999999 8.091148315429692 1.5614999999999997 Q 8.09564831542969 1.556625 8.10389831542969 1.556625 L 8.413648315429691 1.556625 Q 8.42189831542969 1.556625 8.42639831542969 1.5614999999999997 Q 8.43089831542969 1.5663749999999999 8.43089831542969 1.5746249999999997 L 8.43089831542969 1.603125 Q 8.43089831542969 1.6113749999999998 8.42639831542969 1.615875 Q 8.42189831542969 1.620375 8.413648315429691 1.620375 L 8.15864831542969 1.620375 L 8.15864831542969 1.784625 L 8.39714831542969 1.784625 Q 8.405398315429691 1.784625 8.409898315429691 1.7894999999999999 Q 8.414398315429692 1.7943749999999998 8.414398315429692 1.802625 L 8.414398315429692 1.8303749999999999 Q 8.414398315429692 1.837875 8.409898315429691 1.8427499999999999 Q 8.405398315429691 1.8476249999999999 8.39714831542969 1.8476249999999999 L 8.15864831542969 1.8476249999999999 L 8.15864831542969 2.0178749999999996 L 8.41964831542969 2.0178749999999996 Q 8.42789831542969 2.0178749999999996 8.43239831542969 2.022375 Q 8.43689831542969 2.026875 8.43689831542969 2.035125 L 8.43689831542969 2.0643749999999996 Q 8.43689831542969 2.071875 8.43239831542969 2.0767499999999997 Q 8.42789831542969 2.081625 8.41964831542969 2.081625 L 8.10389831542969 2.081625 Z M 8.56586608886719 2.081625 Q 8.55761608886719 2.081625 8.553116088867192 2.0767499999999997 Q 8.548616088867192 2.071875 8.548616088867192 2.0643749999999996 L 8.548616088867192 1.5746249999999997 Q 8.548616088867192 1.5663749999999999 8.553116088867192 1.5614999999999997 Q 8.55761608886719 1.556625 8.56586608886719 1.556625 L 8.74886608886719 1.556625 Q 8.833616088867192 1.556625 8.88311608886719 1.5963749999999999 Q 8.93261608886719 1.6361249999999998 8.93261608886719 1.714125 Q 8.93261608886719 1.7718749999999999 8.903741088867191 1.80825 Q 8.874866088867192 1.8446249999999997 8.825366088867192 1.8588749999999998 L 8.94086608886719 2.058375 Q 8.94311608886719 2.062875 8.94311608886719 2.0666249999999997 Q 8.94311608886719 2.072625 8.93824108886719 2.0771249999999997 Q 8.93336608886719 2.081625 8.927366088867192 2.081625 L 8.89136608886719 2.081625 Q 8.878616088867192 2.081625 8.872616088867192 2.074875 Q 8.866616088867191 2.0681249999999998 8.862116088867191 2.061375 L 8.75336608886719 1.8708749999999998 L 8.622116088867191 1.8708749999999998 L 8.622116088867191 2.0643749999999996 Q 8.622116088867191 2.071875 8.61724108886719 2.0767499999999997 Q 8.61236608886719 2.081625 8.60411608886719 2.081625 L 8.56586608886719 2.081625 Z M 8.622116088867191 1.8071249999999999 L 8.74586608886719 1.8071249999999999 Q 8.80211608886719 1.8071249999999999 8.829866088867192 1.7834999999999999 Q 8.857616088867191 1.7598749999999999 8.857616088867191 1.7133749999999999 Q 8.857616088867191 1.6676249999999997 8.830241088867192 1.643625 Q 8.80286608886719 1.6196249999999999 8.74586608886719 1.6196249999999999 L 8.622116088867191 1.6196249999999999 L 8.622116088867191 1.8071249999999999 Z" fill="#b9625d" fill-rule="nonzero"></path></g><g clip-path="url(&quot;#SvgjsClipPath1009&quot;)"><g clip-path="url(&quot;#SvgjsClipPath1008&quot;)"><path d=" M 7.538941515998908 -6.25472739399731 L 2.0003829182646418 -2.0719365132833305 L 2.0003829182646418 -0.25 L 0.6317749365382559 -0.25 L 0.6317749365382559 -2.747132874529405 L 6.40537756582576 -7.10755985912807 Z" fill="#c5b3b3" transform="matrix(1,0,0,1,0,0)" fill-rule="evenodd"></path></g><g clip-path="url(&quot;#SvgjsClipPath1008&quot;)"><path d=" M 4.715613661043306 -0.25 L 8.799489711899245 -0.25 L 8.799489711899245 -5.3063767969394835 L 8.086295125447325 -5.842905764629852 L 6.950230309764561 -4.984959589427184 L 7.4308817301728585 -4.623341902006545 L 7.4308817301728585 -1.6186079817263872 L 2.703574042678087 -1.6186079817263872 L 2.703574042678087 -0.25 L 4.715613661043306 -0.25 Z" fill="#574848" transform="matrix(1,0,0,1,0,0)" fill-rule="evenodd"></path></g><g clip-path="url(&quot;#SvgjsClipPath1008&quot;)"><path d=" M 5.843392026828529 -7.530355435657137 L 4.715613661043306 -8.378820717733788 L 0.6317749365382559 -5.3063767969394835 L 0.6317749365382559 -3.594441039728472 L 5.843392026828529 -7.530355435657137 Z" fill="#b9625d" transform="matrix(1,0,0,1,0,0)" fill-rule="evenodd"></path></g></g></g><defs><clipPath id="SvgjsClipPath1009"><path d=" M 0.6317749365382559 -8.378820717733788 h 8.167714775360988 v 8.128820717733788 h -8.167714775360988 Z"></path></clipPath><clipPath id="SvgjsClipPath1008"><path d=" M 0.6317749365382559 -8.378820717733788 L 8.799489711899245 -8.378820717733788 L 8.799489711899245 -0.25 L 0.6317749365382559 -0.25 Z"></path></clipPath></defs></svg>